<?xml version="1.0" encoding="utf-8" standalone="no"?>
<!DOCTYPE svg PUBLIC "-//W3C//DTD SVG 1.1//EN"
  "http://www.w3.org/Graphics/SVG/1.1/DTD/svg11.dtd">
<svg xmlns:xlink="http://www.w3.org/1999/xlink" width="460.8pt" height="273.6pt" viewBox="0 0 460.8 273.6" xmlns="http://www.w3.org/2000/svg" version="1.1">
 <metadata>
  <rdf:RDF xmlns:dc="http://purl.org/dc/elements/1.1/" xmlns:cc="http://creativecommons.org/ns#" xmlns:rdf="http://www.w3.org/1999/02/22-rdf-syntax-ns#">
   <cc:Work>
    <dc:type rdf:resource="http://purl.org/dc/dcmitype/StillImage"/>
    <dc:date>2023-08-01T19:45:25.342103</dc:date>
    <dc:format>image/svg+xml</dc:format>
    <dc:creator>
     <cc:Agent>
      <dc:title>Matplotlib v3.7.1, https://matplotlib.org/</dc:title>
     </cc:Agent>
    </dc:creator>
   </cc:Work>
  </rdf:RDF>
 </metadata>
 <defs>
  <style type="text/css">*{stroke-linejoin: round; stroke-linecap: butt}</style>
 </defs>
 <g id="figure_1">
  <g id="patch_1">
   <path d="M 0 273.6 
L 460.8 273.6 
L 460.8 0 
L 0 0 
z
" style="fill: #ffffff"/>
  </g>
  <g id="axes_1">
   <g id="patch_2">
    <path d="M 44.57 211.825029 
L 450 211.825029 
L 450 10.8 
L 44.57 10.8 
z
" style="fill: #ffffff"/>
   </g>
   <g id="matplotlib.axis_1">
    <g id="xtick_1">
     <g id="line2d_1">
      <defs>
       <path id="m45707a9efa" d="M 0 0 
L 0 3.5 
" style="stroke: #000000; stroke-width: 0.8"/>
      </defs>
      <g>
       <use xlink:href="#m45707a9efa" x="73.839011" y="211.825029" style="stroke: #000000; stroke-width: 0.8"/>
      </g>
     </g>
     <g id="text_1">
      <!-- Python -->
      <g transform="translate(63.535139 248.708025) rotate(-45) scale(0.1 -0.1)">
       <defs>
        <path id="DejaVuSans-50" d="M 1259 4147 
L 1259 2394 
L 2053 2394 
Q 2494 2394 2734 2622 
Q 2975 2850 2975 3272 
Q 2975 3691 2734 3919 
Q 2494 4147 2053 4147 
L 1259 4147 
z
M 628 4666 
L 2053 4666 
Q 2838 4666 3239 4311 
Q 3641 3956 3641 3272 
Q 3641 2581 3239 2228 
Q 2838 1875 2053 1875 
L 1259 1875 
L 1259 0 
L 628 0 
L 628 4666 
z
" transform="scale(0.015625)"/>
        <path id="DejaVuSans-79" d="M 2059 -325 
Q 1816 -950 1584 -1140 
Q 1353 -1331 966 -1331 
L 506 -1331 
L 506 -850 
L 844 -850 
Q 1081 -850 1212 -737 
Q 1344 -625 1503 -206 
L 1606 56 
L 191 3500 
L 800 3500 
L 1894 763 
L 2988 3500 
L 3597 3500 
L 2059 -325 
z
" transform="scale(0.015625)"/>
        <path id="DejaVuSans-74" d="M 1172 4494 
L 1172 3500 
L 2356 3500 
L 2356 3053 
L 1172 3053 
L 1172 1153 
Q 1172 725 1289 603 
Q 1406 481 1766 481 
L 2356 481 
L 2356 0 
L 1766 0 
Q 1100 0 847 248 
Q 594 497 594 1153 
L 594 3053 
L 172 3053 
L 172 3500 
L 594 3500 
L 594 4494 
L 1172 4494 
z
" transform="scale(0.015625)"/>
        <path id="DejaVuSans-68" d="M 3513 2113 
L 3513 0 
L 2938 0 
L 2938 2094 
Q 2938 2591 2744 2837 
Q 2550 3084 2163 3084 
Q 1697 3084 1428 2787 
Q 1159 2491 1159 1978 
L 1159 0 
L 581 0 
L 581 4863 
L 1159 4863 
L 1159 2956 
Q 1366 3272 1645 3428 
Q 1925 3584 2291 3584 
Q 2894 3584 3203 3211 
Q 3513 2838 3513 2113 
z
" transform="scale(0.015625)"/>
        <path id="DejaVuSans-6f" d="M 1959 3097 
Q 1497 3097 1228 2736 
Q 959 2375 959 1747 
Q 959 1119 1226 758 
Q 1494 397 1959 397 
Q 2419 397 2687 759 
Q 2956 1122 2956 1747 
Q 2956 2369 2687 2733 
Q 2419 3097 1959 3097 
z
M 1959 3584 
Q 2709 3584 3137 3096 
Q 3566 2609 3566 1747 
Q 3566 888 3137 398 
Q 2709 -91 1959 -91 
Q 1206 -91 779 398 
Q 353 888 353 1747 
Q 353 2609 779 3096 
Q 1206 3584 1959 3584 
z
" transform="scale(0.015625)"/>
        <path id="DejaVuSans-6e" d="M 3513 2113 
L 3513 0 
L 2938 0 
L 2938 2094 
Q 2938 2591 2744 2837 
Q 2550 3084 2163 3084 
Q 1697 3084 1428 2787 
Q 1159 2491 1159 1978 
L 1159 0 
L 581 0 
L 581 3500 
L 1159 3500 
L 1159 2956 
Q 1366 3272 1645 3428 
Q 1925 3584 2291 3584 
Q 2894 3584 3203 3211 
Q 3513 2838 3513 2113 
z
" transform="scale(0.015625)"/>
       </defs>
       <use xlink:href="#DejaVuSans-50"/>
       <use xlink:href="#DejaVuSans-79" x="60.302734"/>
       <use xlink:href="#DejaVuSans-74" x="119.482422"/>
       <use xlink:href="#DejaVuSans-68" x="158.691406"/>
       <use xlink:href="#DejaVuSans-6f" x="222.070312"/>
       <use xlink:href="#DejaVuSans-6e" x="283.251953"/>
      </g>
     </g>
    </g>
    <g id="xtick_2">
     <g id="line2d_2">
      <g>
       <use xlink:href="#m45707a9efa" x="105.374645" y="211.825029" style="stroke: #000000; stroke-width: 0.8"/>
      </g>
     </g>
     <g id="text_2">
      <!-- Java -->
      <g transform="translate(99.857003 239.135567) rotate(-45) scale(0.1 -0.1)">
       <defs>
        <path id="DejaVuSans-4a" d="M 628 4666 
L 1259 4666 
L 1259 325 
Q 1259 -519 939 -900 
Q 619 -1281 -91 -1281 
L -331 -1281 
L -331 -750 
L -134 -750 
Q 284 -750 456 -515 
Q 628 -281 628 325 
L 628 4666 
z
" transform="scale(0.015625)"/>
        <path id="DejaVuSans-61" d="M 2194 1759 
Q 1497 1759 1228 1600 
Q 959 1441 959 1056 
Q 959 750 1161 570 
Q 1363 391 1709 391 
Q 2188 391 2477 730 
Q 2766 1069 2766 1631 
L 2766 1759 
L 2194 1759 
z
M 3341 1997 
L 3341 0 
L 2766 0 
L 2766 531 
Q 2569 213 2275 61 
Q 1981 -91 1556 -91 
Q 1019 -91 701 211 
Q 384 513 384 1019 
Q 384 1609 779 1909 
Q 1175 2209 1959 2209 
L 2766 2209 
L 2766 2266 
Q 2766 2663 2505 2880 
Q 2244 3097 1772 3097 
Q 1472 3097 1187 3025 
Q 903 2953 641 2809 
L 641 3341 
Q 956 3463 1253 3523 
Q 1550 3584 1831 3584 
Q 2591 3584 2966 3190 
Q 3341 2797 3341 1997 
z
" transform="scale(0.015625)"/>
        <path id="DejaVuSans-76" d="M 191 3500 
L 800 3500 
L 1894 563 
L 2988 3500 
L 3597 3500 
L 2284 0 
L 1503 0 
L 191 3500 
z
" transform="scale(0.015625)"/>
       </defs>
       <use xlink:href="#DejaVuSans-4a"/>
       <use xlink:href="#DejaVuSans-61" x="29.492188"/>
       <use xlink:href="#DejaVuSans-76" x="90.771484"/>
       <use xlink:href="#DejaVuSans-61" x="149.951172"/>
      </g>
     </g>
    </g>
    <g id="xtick_3">
     <g id="line2d_3">
      <g>
       <use xlink:href="#m45707a9efa" x="136.91028" y="211.825029" style="stroke: #000000; stroke-width: 0.8"/>
      </g>
     </g>
     <g id="text_3">
      <!-- TypeScript -->
      <g transform="translate(120.487172 260.946496) rotate(-45) scale(0.1 -0.1)">
       <defs>
        <path id="DejaVuSans-54" d="M -19 4666 
L 3928 4666 
L 3928 4134 
L 2272 4134 
L 2272 0 
L 1638 0 
L 1638 4134 
L -19 4134 
L -19 4666 
z
" transform="scale(0.015625)"/>
        <path id="DejaVuSans-70" d="M 1159 525 
L 1159 -1331 
L 581 -1331 
L 581 3500 
L 1159 3500 
L 1159 2969 
Q 1341 3281 1617 3432 
Q 1894 3584 2278 3584 
Q 2916 3584 3314 3078 
Q 3713 2572 3713 1747 
Q 3713 922 3314 415 
Q 2916 -91 2278 -91 
Q 1894 -91 1617 61 
Q 1341 213 1159 525 
z
M 3116 1747 
Q 3116 2381 2855 2742 
Q 2594 3103 2138 3103 
Q 1681 3103 1420 2742 
Q 1159 2381 1159 1747 
Q 1159 1113 1420 752 
Q 1681 391 2138 391 
Q 2594 391 2855 752 
Q 3116 1113 3116 1747 
z
" transform="scale(0.015625)"/>
        <path id="DejaVuSans-65" d="M 3597 1894 
L 3597 1613 
L 953 1613 
Q 991 1019 1311 708 
Q 1631 397 2203 397 
Q 2534 397 2845 478 
Q 3156 559 3463 722 
L 3463 178 
Q 3153 47 2828 -22 
Q 2503 -91 2169 -91 
Q 1331 -91 842 396 
Q 353 884 353 1716 
Q 353 2575 817 3079 
Q 1281 3584 2069 3584 
Q 2775 3584 3186 3129 
Q 3597 2675 3597 1894 
z
M 3022 2063 
Q 3016 2534 2758 2815 
Q 2500 3097 2075 3097 
Q 1594 3097 1305 2825 
Q 1016 2553 972 2059 
L 3022 2063 
z
" transform="scale(0.015625)"/>
        <path id="DejaVuSans-53" d="M 3425 4513 
L 3425 3897 
Q 3066 4069 2747 4153 
Q 2428 4238 2131 4238 
Q 1616 4238 1336 4038 
Q 1056 3838 1056 3469 
Q 1056 3159 1242 3001 
Q 1428 2844 1947 2747 
L 2328 2669 
Q 3034 2534 3370 2195 
Q 3706 1856 3706 1288 
Q 3706 609 3251 259 
Q 2797 -91 1919 -91 
Q 1588 -91 1214 -16 
Q 841 59 441 206 
L 441 856 
Q 825 641 1194 531 
Q 1563 422 1919 422 
Q 2459 422 2753 634 
Q 3047 847 3047 1241 
Q 3047 1584 2836 1778 
Q 2625 1972 2144 2069 
L 1759 2144 
Q 1053 2284 737 2584 
Q 422 2884 422 3419 
Q 422 4038 858 4394 
Q 1294 4750 2059 4750 
Q 2388 4750 2728 4690 
Q 3069 4631 3425 4513 
z
" transform="scale(0.015625)"/>
        <path id="DejaVuSans-63" d="M 3122 3366 
L 3122 2828 
Q 2878 2963 2633 3030 
Q 2388 3097 2138 3097 
Q 1578 3097 1268 2742 
Q 959 2388 959 1747 
Q 959 1106 1268 751 
Q 1578 397 2138 397 
Q 2388 397 2633 464 
Q 2878 531 3122 666 
L 3122 134 
Q 2881 22 2623 -34 
Q 2366 -91 2075 -91 
Q 1284 -91 818 406 
Q 353 903 353 1747 
Q 353 2603 823 3093 
Q 1294 3584 2113 3584 
Q 2378 3584 2631 3529 
Q 2884 3475 3122 3366 
z
" transform="scale(0.015625)"/>
        <path id="DejaVuSans-72" d="M 2631 2963 
Q 2534 3019 2420 3045 
Q 2306 3072 2169 3072 
Q 1681 3072 1420 2755 
Q 1159 2438 1159 1844 
L 1159 0 
L 581 0 
L 581 3500 
L 1159 3500 
L 1159 2956 
Q 1341 3275 1631 3429 
Q 1922 3584 2338 3584 
Q 2397 3584 2469 3576 
Q 2541 3569 2628 3553 
L 2631 2963 
z
" transform="scale(0.015625)"/>
        <path id="DejaVuSans-69" d="M 603 3500 
L 1178 3500 
L 1178 0 
L 603 0 
L 603 3500 
z
M 603 4863 
L 1178 4863 
L 1178 4134 
L 603 4134 
L 603 4863 
z
" transform="scale(0.015625)"/>
       </defs>
       <use xlink:href="#DejaVuSans-54"/>
       <use xlink:href="#DejaVuSans-79" x="45.458984"/>
       <use xlink:href="#DejaVuSans-70" x="104.638672"/>
       <use xlink:href="#DejaVuSans-65" x="168.115234"/>
       <use xlink:href="#DejaVuSans-53" x="229.638672"/>
       <use xlink:href="#DejaVuSans-63" x="293.115234"/>
       <use xlink:href="#DejaVuSans-72" x="348.095703"/>
       <use xlink:href="#DejaVuSans-69" x="389.208984"/>
       <use xlink:href="#DejaVuSans-70" x="416.992188"/>
       <use xlink:href="#DejaVuSans-74" x="480.46875"/>
      </g>
     </g>
    </g>
    <g id="xtick_4">
     <g id="line2d_4">
      <g>
       <use xlink:href="#m45707a9efa" x="168.445914" y="211.825029" style="stroke: #000000; stroke-width: 0.8"/>
      </g>
     </g>
     <g id="text_4">
      <!-- PHP -->
      <g transform="translate(163.474622 238.042866) rotate(-45) scale(0.1 -0.1)">
       <defs>
        <path id="DejaVuSans-48" d="M 628 4666 
L 1259 4666 
L 1259 2753 
L 3553 2753 
L 3553 4666 
L 4184 4666 
L 4184 0 
L 3553 0 
L 3553 2222 
L 1259 2222 
L 1259 0 
L 628 0 
L 628 4666 
z
" transform="scale(0.015625)"/>
       </defs>
       <use xlink:href="#DejaVuSans-50"/>
       <use xlink:href="#DejaVuSans-48" x="60.302734"/>
       <use xlink:href="#DejaVuSans-50" x="135.498047"/>
      </g>
     </g>
    </g>
    <g id="xtick_5">
     <g id="line2d_5">
      <g>
       <use xlink:href="#m45707a9efa" x="199.981548" y="211.825029" style="stroke: #000000; stroke-width: 0.8"/>
      </g>
     </g>
     <g id="text_5">
      <!-- JavaScript -->
      <g transform="translate(184.2092 259.644978) rotate(-45) scale(0.1 -0.1)">
       <use xlink:href="#DejaVuSans-4a"/>
       <use xlink:href="#DejaVuSans-61" x="29.492188"/>
       <use xlink:href="#DejaVuSans-76" x="90.771484"/>
       <use xlink:href="#DejaVuSans-61" x="149.951172"/>
       <use xlink:href="#DejaVuSans-53" x="211.230469"/>
       <use xlink:href="#DejaVuSans-63" x="274.707031"/>
       <use xlink:href="#DejaVuSans-72" x="329.6875"/>
       <use xlink:href="#DejaVuSans-69" x="370.800781"/>
       <use xlink:href="#DejaVuSans-70" x="398.583984"/>
       <use xlink:href="#DejaVuSans-74" x="462.060547"/>
      </g>
     </g>
    </g>
    <g id="xtick_6">
     <g id="line2d_6">
      <g>
       <use xlink:href="#m45707a9efa" x="231.517183" y="211.825029" style="stroke: #000000; stroke-width: 0.8"/>
      </g>
     </g>
     <g id="text_6">
      <!-- Kotlin -->
      <g transform="translate(223.572175 243.990297) rotate(-45) scale(0.1 -0.1)">
       <defs>
        <path id="DejaVuSans-4b" d="M 628 4666 
L 1259 4666 
L 1259 2694 
L 3353 4666 
L 4166 4666 
L 1850 2491 
L 4331 0 
L 3500 0 
L 1259 2247 
L 1259 0 
L 628 0 
L 628 4666 
z
" transform="scale(0.015625)"/>
        <path id="DejaVuSans-6c" d="M 603 4863 
L 1178 4863 
L 1178 0 
L 603 0 
L 603 4863 
z
" transform="scale(0.015625)"/>
       </defs>
       <use xlink:href="#DejaVuSans-4b"/>
       <use xlink:href="#DejaVuSans-6f" x="60.576172"/>
       <use xlink:href="#DejaVuSans-74" x="121.757812"/>
       <use xlink:href="#DejaVuSans-6c" x="160.966797"/>
       <use xlink:href="#DejaVuSans-69" x="188.75"/>
       <use xlink:href="#DejaVuSans-6e" x="216.533203"/>
      </g>
     </g>
    </g>
    <g id="xtick_7">
     <g id="line2d_7">
      <g>
       <use xlink:href="#m45707a9efa" x="263.052817" y="211.825029" style="stroke: #000000; stroke-width: 0.8"/>
      </g>
     </g>
     <g id="text_7">
      <!-- C++ -->
      <g transform="translate(256.609859 240.986198) rotate(-45) scale(0.1 -0.1)">
       <defs>
        <path id="DejaVuSans-43" d="M 4122 4306 
L 4122 3641 
Q 3803 3938 3442 4084 
Q 3081 4231 2675 4231 
Q 1875 4231 1450 3742 
Q 1025 3253 1025 2328 
Q 1025 1406 1450 917 
Q 1875 428 2675 428 
Q 3081 428 3442 575 
Q 3803 722 4122 1019 
L 4122 359 
Q 3791 134 3420 21 
Q 3050 -91 2638 -91 
Q 1578 -91 968 557 
Q 359 1206 359 2328 
Q 359 3453 968 4101 
Q 1578 4750 2638 4750 
Q 3056 4750 3426 4639 
Q 3797 4528 4122 4306 
z
" transform="scale(0.015625)"/>
        <path id="DejaVuSans-2b" d="M 2944 4013 
L 2944 2272 
L 4684 2272 
L 4684 1741 
L 2944 1741 
L 2944 0 
L 2419 0 
L 2419 1741 
L 678 1741 
L 678 2272 
L 2419 2272 
L 2419 4013 
L 2944 4013 
z
" transform="scale(0.015625)"/>
       </defs>
       <use xlink:href="#DejaVuSans-43"/>
       <use xlink:href="#DejaVuSans-2b" x="69.824219"/>
       <use xlink:href="#DejaVuSans-2b" x="153.613281"/>
      </g>
     </g>
    </g>
    <g id="xtick_8">
     <g id="line2d_8">
      <g>
       <use xlink:href="#m45707a9efa" x="294.588452" y="211.825029" style="stroke: #000000; stroke-width: 0.8"/>
      </g>
     </g>
     <g id="text_8">
      <!-- Rust -->
      <g transform="translate(288.773603 239.729978) rotate(-45) scale(0.1 -0.1)">
       <defs>
        <path id="DejaVuSans-52" d="M 2841 2188 
Q 3044 2119 3236 1894 
Q 3428 1669 3622 1275 
L 4263 0 
L 3584 0 
L 2988 1197 
Q 2756 1666 2539 1819 
Q 2322 1972 1947 1972 
L 1259 1972 
L 1259 0 
L 628 0 
L 628 4666 
L 2053 4666 
Q 2853 4666 3247 4331 
Q 3641 3997 3641 3322 
Q 3641 2881 3436 2590 
Q 3231 2300 2841 2188 
z
M 1259 4147 
L 1259 2491 
L 2053 2491 
Q 2509 2491 2742 2702 
Q 2975 2913 2975 3322 
Q 2975 3731 2742 3939 
Q 2509 4147 2053 4147 
L 1259 4147 
z
" transform="scale(0.015625)"/>
        <path id="DejaVuSans-75" d="M 544 1381 
L 544 3500 
L 1119 3500 
L 1119 1403 
Q 1119 906 1312 657 
Q 1506 409 1894 409 
Q 2359 409 2629 706 
Q 2900 1003 2900 1516 
L 2900 3500 
L 3475 3500 
L 3475 0 
L 2900 0 
L 2900 538 
Q 2691 219 2414 64 
Q 2138 -91 1772 -91 
Q 1169 -91 856 284 
Q 544 659 544 1381 
z
M 1991 3584 
L 1991 3584 
z
" transform="scale(0.015625)"/>
        <path id="DejaVuSans-73" d="M 2834 3397 
L 2834 2853 
Q 2591 2978 2328 3040 
Q 2066 3103 1784 3103 
Q 1356 3103 1142 2972 
Q 928 2841 928 2578 
Q 928 2378 1081 2264 
Q 1234 2150 1697 2047 
L 1894 2003 
Q 2506 1872 2764 1633 
Q 3022 1394 3022 966 
Q 3022 478 2636 193 
Q 2250 -91 1575 -91 
Q 1294 -91 989 -36 
Q 684 19 347 128 
L 347 722 
Q 666 556 975 473 
Q 1284 391 1588 391 
Q 1994 391 2212 530 
Q 2431 669 2431 922 
Q 2431 1156 2273 1281 
Q 2116 1406 1581 1522 
L 1381 1569 
Q 847 1681 609 1914 
Q 372 2147 372 2553 
Q 372 3047 722 3315 
Q 1072 3584 1716 3584 
Q 2034 3584 2315 3537 
Q 2597 3491 2834 3397 
z
" transform="scale(0.015625)"/>
       </defs>
       <use xlink:href="#DejaVuSans-52"/>
       <use xlink:href="#DejaVuSans-75" x="64.982422"/>
       <use xlink:href="#DejaVuSans-73" x="128.361328"/>
       <use xlink:href="#DejaVuSans-74" x="180.460938"/>
      </g>
     </g>
    </g>
    <g id="xtick_9">
     <g id="line2d_9">
      <g>
       <use xlink:href="#m45707a9efa" x="326.124086" y="211.825029" style="stroke: #000000; stroke-width: 0.8"/>
      </g>
     </g>
     <g id="text_9">
      <!-- C# -->
      <g transform="translate(322.643795 235.060864) rotate(-45) scale(0.1 -0.1)">
       <defs>
        <path id="DejaVuSans-23" d="M 3272 2816 
L 2363 2816 
L 2100 1772 
L 3016 1772 
L 3272 2816 
z
M 2803 4594 
L 2478 3297 
L 3391 3297 
L 3719 4594 
L 4219 4594 
L 3897 3297 
L 4872 3297 
L 4872 2816 
L 3775 2816 
L 3519 1772 
L 4513 1772 
L 4513 1294 
L 3397 1294 
L 3072 0 
L 2572 0 
L 2894 1294 
L 1978 1294 
L 1656 0 
L 1153 0 
L 1478 1294 
L 494 1294 
L 494 1772 
L 1594 1772 
L 1856 2816 
L 850 2816 
L 850 3297 
L 1978 3297 
L 2297 4594 
L 2803 4594 
z
" transform="scale(0.015625)"/>
       </defs>
       <use xlink:href="#DejaVuSans-43"/>
       <use xlink:href="#DejaVuSans-23" x="69.824219"/>
      </g>
     </g>
    </g>
    <g id="xtick_10">
     <g id="line2d_10">
      <g>
       <use xlink:href="#m45707a9efa" x="357.65972" y="211.825029" style="stroke: #000000; stroke-width: 0.8"/>
      </g>
     </g>
     <g id="text_10">
      <!-- Go -->
      <g transform="translate(354.708102 234.003518) rotate(-45) scale(0.1 -0.1)">
       <defs>
        <path id="DejaVuSans-47" d="M 3809 666 
L 3809 1919 
L 2778 1919 
L 2778 2438 
L 4434 2438 
L 4434 434 
Q 4069 175 3628 42 
Q 3188 -91 2688 -91 
Q 1594 -91 976 548 
Q 359 1188 359 2328 
Q 359 3472 976 4111 
Q 1594 4750 2688 4750 
Q 3144 4750 3555 4637 
Q 3966 4525 4313 4306 
L 4313 3634 
Q 3963 3931 3569 4081 
Q 3175 4231 2741 4231 
Q 1884 4231 1454 3753 
Q 1025 3275 1025 2328 
Q 1025 1384 1454 906 
Q 1884 428 2741 428 
Q 3075 428 3337 486 
Q 3600 544 3809 666 
z
" transform="scale(0.015625)"/>
       </defs>
       <use xlink:href="#DejaVuSans-47"/>
       <use xlink:href="#DejaVuSans-6f" x="77.490234"/>
      </g>
     </g>
    </g>
    <g id="xtick_11">
     <g id="line2d_11">
      <g>
       <use xlink:href="#m45707a9efa" x="389.195355" y="211.825029" style="stroke: #000000; stroke-width: 0.8"/>
      </g>
     </g>
     <g id="text_11">
      <!-- C -->
      <g transform="translate(388.677731 229.13553) rotate(-45) scale(0.1 -0.1)">
       <use xlink:href="#DejaVuSans-43"/>
      </g>
     </g>
    </g>
    <g id="xtick_12">
     <g id="line2d_12">
      <g>
       <use xlink:href="#m45707a9efa" x="420.730989" y="211.825029" style="stroke: #000000; stroke-width: 0.8"/>
      </g>
     </g>
     <g id="text_12">
      <!-- Scala -->
      <g transform="translate(413.178205 243.20585) rotate(-45) scale(0.1 -0.1)">
       <use xlink:href="#DejaVuSans-53"/>
       <use xlink:href="#DejaVuSans-63" x="63.476562"/>
       <use xlink:href="#DejaVuSans-61" x="118.457031"/>
       <use xlink:href="#DejaVuSans-6c" x="179.736328"/>
       <use xlink:href="#DejaVuSans-61" x="207.519531"/>
      </g>
     </g>
    </g>
   </g>
   <g id="matplotlib.axis_2">
    <g id="ytick_1">
     <g id="line2d_13">
      <path d="M 44.57 211.825029 
L 450 211.825029 
" clip-path="url(#p8aa837e3e9)" style="fill: none; stroke: #b0b0b0; stroke-opacity: 0.5; stroke-width: 0.8; stroke-linecap: square"/>
     </g>
     <g id="line2d_14">
      <defs>
       <path id="m3d400c0554" d="M 0 0 
L -3.5 0 
" style="stroke: #000000; stroke-width: 0.8"/>
      </defs>
      <g>
       <use xlink:href="#m3d400c0554" x="44.57" y="211.825029" style="stroke: #000000; stroke-width: 0.8"/>
      </g>
     </g>
     <g id="text_13">
      <!-- 0 -->
      <g transform="translate(31.2075 215.624248) scale(0.1 -0.1)">
       <defs>
        <path id="DejaVuSans-30" d="M 2034 4250 
Q 1547 4250 1301 3770 
Q 1056 3291 1056 2328 
Q 1056 1369 1301 889 
Q 1547 409 2034 409 
Q 2525 409 2770 889 
Q 3016 1369 3016 2328 
Q 3016 3291 2770 3770 
Q 2525 4250 2034 4250 
z
M 2034 4750 
Q 2819 4750 3233 4129 
Q 3647 3509 3647 2328 
Q 3647 1150 3233 529 
Q 2819 -91 2034 -91 
Q 1250 -91 836 529 
Q 422 1150 422 2328 
Q 422 3509 836 4129 
Q 1250 4750 2034 4750 
z
" transform="scale(0.015625)"/>
       </defs>
       <use xlink:href="#DejaVuSans-30"/>
      </g>
     </g>
    </g>
    <g id="ytick_2">
     <g id="line2d_15">
      <path d="M 44.57 163.604704 
L 450 163.604704 
" clip-path="url(#p8aa837e3e9)" style="fill: none; stroke: #b0b0b0; stroke-opacity: 0.5; stroke-width: 0.8; stroke-linecap: square"/>
     </g>
     <g id="line2d_16">
      <g>
       <use xlink:href="#m3d400c0554" x="44.57" y="163.604704" style="stroke: #000000; stroke-width: 0.8"/>
      </g>
     </g>
     <g id="text_14">
      <!-- 10 -->
      <g transform="translate(24.845 167.403923) scale(0.1 -0.1)">
       <defs>
        <path id="DejaVuSans-31" d="M 794 531 
L 1825 531 
L 1825 4091 
L 703 3866 
L 703 4441 
L 1819 4666 
L 2450 4666 
L 2450 531 
L 3481 531 
L 3481 0 
L 794 0 
L 794 531 
z
" transform="scale(0.015625)"/>
       </defs>
       <use xlink:href="#DejaVuSans-31"/>
       <use xlink:href="#DejaVuSans-30" x="63.623047"/>
      </g>
     </g>
    </g>
    <g id="ytick_3">
     <g id="line2d_17">
      <path d="M 44.57 115.384379 
L 450 115.384379 
" clip-path="url(#p8aa837e3e9)" style="fill: none; stroke: #b0b0b0; stroke-opacity: 0.5; stroke-width: 0.8; stroke-linecap: square"/>
     </g>
     <g id="line2d_18">
      <g>
       <use xlink:href="#m3d400c0554" x="44.57" y="115.384379" style="stroke: #000000; stroke-width: 0.8"/>
      </g>
     </g>
     <g id="text_15">
      <!-- 20 -->
      <g transform="translate(24.845 119.183598) scale(0.1 -0.1)">
       <defs>
        <path id="DejaVuSans-32" d="M 1228 531 
L 3431 531 
L 3431 0 
L 469 0 
L 469 531 
Q 828 903 1448 1529 
Q 2069 2156 2228 2338 
Q 2531 2678 2651 2914 
Q 2772 3150 2772 3378 
Q 2772 3750 2511 3984 
Q 2250 4219 1831 4219 
Q 1534 4219 1204 4116 
Q 875 4013 500 3803 
L 500 4441 
Q 881 4594 1212 4672 
Q 1544 4750 1819 4750 
Q 2544 4750 2975 4387 
Q 3406 4025 3406 3419 
Q 3406 3131 3298 2873 
Q 3191 2616 2906 2266 
Q 2828 2175 2409 1742 
Q 1991 1309 1228 531 
z
" transform="scale(0.015625)"/>
       </defs>
       <use xlink:href="#DejaVuSans-32"/>
       <use xlink:href="#DejaVuSans-30" x="63.623047"/>
      </g>
     </g>
    </g>
    <g id="ytick_4">
     <g id="line2d_19">
      <path d="M 44.57 67.164054 
L 450 67.164054 
" clip-path="url(#p8aa837e3e9)" style="fill: none; stroke: #b0b0b0; stroke-opacity: 0.5; stroke-width: 0.8; stroke-linecap: square"/>
     </g>
     <g id="line2d_20">
      <g>
       <use xlink:href="#m3d400c0554" x="44.57" y="67.164054" style="stroke: #000000; stroke-width: 0.8"/>
      </g>
     </g>
     <g id="text_16">
      <!-- 30 -->
      <g transform="translate(24.845 70.963272) scale(0.1 -0.1)">
       <defs>
        <path id="DejaVuSans-33" d="M 2597 2516 
Q 3050 2419 3304 2112 
Q 3559 1806 3559 1356 
Q 3559 666 3084 287 
Q 2609 -91 1734 -91 
Q 1441 -91 1130 -33 
Q 819 25 488 141 
L 488 750 
Q 750 597 1062 519 
Q 1375 441 1716 441 
Q 2309 441 2620 675 
Q 2931 909 2931 1356 
Q 2931 1769 2642 2001 
Q 2353 2234 1838 2234 
L 1294 2234 
L 1294 2753 
L 1863 2753 
Q 2328 2753 2575 2939 
Q 2822 3125 2822 3475 
Q 2822 3834 2567 4026 
Q 2313 4219 1838 4219 
Q 1578 4219 1281 4162 
Q 984 4106 628 3988 
L 628 4550 
Q 988 4650 1302 4700 
Q 1616 4750 1894 4750 
Q 2613 4750 3031 4423 
Q 3450 4097 3450 3541 
Q 3450 3153 3228 2886 
Q 3006 2619 2597 2516 
z
" transform="scale(0.015625)"/>
       </defs>
       <use xlink:href="#DejaVuSans-33"/>
       <use xlink:href="#DejaVuSans-30" x="63.623047"/>
      </g>
     </g>
    </g>
    <g id="ytick_5">
     <g id="line2d_21">
      <path d="M 44.57 18.943728 
L 450 18.943728 
" clip-path="url(#p8aa837e3e9)" style="fill: none; stroke: #b0b0b0; stroke-opacity: 0.5; stroke-width: 0.8; stroke-linecap: square"/>
     </g>
     <g id="line2d_22">
      <g>
       <use xlink:href="#m3d400c0554" x="44.57" y="18.943728" style="stroke: #000000; stroke-width: 0.8"/>
      </g>
     </g>
     <g id="text_17">
      <!-- 40 -->
      <g transform="translate(24.845 22.742947) scale(0.1 -0.1)">
       <defs>
        <path id="DejaVuSans-34" d="M 2419 4116 
L 825 1625 
L 2419 1625 
L 2419 4116 
z
M 2253 4666 
L 3047 4666 
L 3047 1625 
L 3713 1625 
L 3713 1100 
L 3047 1100 
L 3047 0 
L 2419 0 
L 2419 1100 
L 313 1100 
L 313 1709 
L 2253 4666 
z
" transform="scale(0.015625)"/>
       </defs>
       <use xlink:href="#DejaVuSans-34"/>
       <use xlink:href="#DejaVuSans-30" x="63.623047"/>
      </g>
     </g>
    </g>
    <g id="ytick_6">
     <g id="line2d_23">
      <path d="M 44.57 187.714867 
L 450 187.714867 
" clip-path="url(#p8aa837e3e9)" style="fill: none; stroke-dasharray: 2.96,1.28; stroke-dashoffset: 0; stroke: #b0b0b0; stroke-opacity: 0.5; stroke-width: 0.8"/>
     </g>
     <g id="line2d_24">
      <defs>
       <path id="m41882804f7" d="M 0 0 
L -2 0 
" style="stroke: #000000; stroke-width: 0.6"/>
      </defs>
      <g>
       <use xlink:href="#m41882804f7" x="44.57" y="187.714867" style="stroke: #000000; stroke-width: 0.6"/>
      </g>
     </g>
    </g>
    <g id="ytick_7">
     <g id="line2d_25">
      <path d="M 44.57 139.494541 
L 450 139.494541 
" clip-path="url(#p8aa837e3e9)" style="fill: none; stroke-dasharray: 2.96,1.28; stroke-dashoffset: 0; stroke: #b0b0b0; stroke-opacity: 0.5; stroke-width: 0.8"/>
     </g>
     <g id="line2d_26">
      <g>
       <use xlink:href="#m41882804f7" x="44.57" y="139.494541" style="stroke: #000000; stroke-width: 0.6"/>
      </g>
     </g>
    </g>
    <g id="ytick_8">
     <g id="line2d_27">
      <path d="M 44.57 91.274216 
L 450 91.274216 
" clip-path="url(#p8aa837e3e9)" style="fill: none; stroke-dasharray: 2.96,1.28; stroke-dashoffset: 0; stroke: #b0b0b0; stroke-opacity: 0.5; stroke-width: 0.8"/>
     </g>
     <g id="line2d_28">
      <g>
       <use xlink:href="#m41882804f7" x="44.57" y="91.274216" style="stroke: #000000; stroke-width: 0.6"/>
      </g>
     </g>
    </g>
    <g id="ytick_9">
     <g id="line2d_29">
      <path d="M 44.57 43.053891 
L 450 43.053891 
" clip-path="url(#p8aa837e3e9)" style="fill: none; stroke-dasharray: 2.96,1.28; stroke-dashoffset: 0; stroke: #b0b0b0; stroke-opacity: 0.5; stroke-width: 0.8"/>
     </g>
     <g id="line2d_30">
      <g>
       <use xlink:href="#m41882804f7" x="44.57" y="43.053891" style="stroke: #000000; stroke-width: 0.6"/>
      </g>
     </g>
    </g>
    <g id="text_18">
     <!-- ROUGE-L -->
     <g transform="translate(18.765312 134.005483) rotate(-90) scale(0.1 -0.1)">
      <defs>
       <path id="DejaVuSans-4f" d="M 2522 4238 
Q 1834 4238 1429 3725 
Q 1025 3213 1025 2328 
Q 1025 1447 1429 934 
Q 1834 422 2522 422 
Q 3209 422 3611 934 
Q 4013 1447 4013 2328 
Q 4013 3213 3611 3725 
Q 3209 4238 2522 4238 
z
M 2522 4750 
Q 3503 4750 4090 4092 
Q 4678 3434 4678 2328 
Q 4678 1225 4090 567 
Q 3503 -91 2522 -91 
Q 1538 -91 948 565 
Q 359 1222 359 2328 
Q 359 3434 948 4092 
Q 1538 4750 2522 4750 
z
" transform="scale(0.015625)"/>
       <path id="DejaVuSans-55" d="M 556 4666 
L 1191 4666 
L 1191 1831 
Q 1191 1081 1462 751 
Q 1734 422 2344 422 
Q 2950 422 3222 751 
Q 3494 1081 3494 1831 
L 3494 4666 
L 4128 4666 
L 4128 1753 
Q 4128 841 3676 375 
Q 3225 -91 2344 -91 
Q 1459 -91 1007 375 
Q 556 841 556 1753 
L 556 4666 
z
" transform="scale(0.015625)"/>
       <path id="DejaVuSans-45" d="M 628 4666 
L 3578 4666 
L 3578 4134 
L 1259 4134 
L 1259 2753 
L 3481 2753 
L 3481 2222 
L 1259 2222 
L 1259 531 
L 3634 531 
L 3634 0 
L 628 0 
L 628 4666 
z
" transform="scale(0.015625)"/>
       <path id="DejaVuSans-2d" d="M 313 2009 
L 1997 2009 
L 1997 1497 
L 313 1497 
L 313 2009 
z
" transform="scale(0.015625)"/>
       <path id="DejaVuSans-4c" d="M 628 4666 
L 1259 4666 
L 1259 531 
L 3531 531 
L 3531 0 
L 628 0 
L 628 4666 
z
" transform="scale(0.015625)"/>
      </defs>
      <use xlink:href="#DejaVuSans-52"/>
      <use xlink:href="#DejaVuSans-4f" x="69.482422"/>
      <use xlink:href="#DejaVuSans-55" x="148.193359"/>
      <use xlink:href="#DejaVuSans-47" x="221.386719"/>
      <use xlink:href="#DejaVuSans-45" x="298.876953"/>
      <use xlink:href="#DejaVuSans-2d" x="362.060547"/>
      <use xlink:href="#DejaVuSans-4c" x="398.144531"/>
     </g>
    </g>
   </g>
   <g id="patch_3">
    <path d="M 44.57 211.825029 
L 44.57 10.8 
" style="fill: none; stroke: #000000; stroke-width: 0.8; stroke-linejoin: miter; stroke-linecap: square"/>
   </g>
   <g id="patch_4">
    <path d="M 450 211.825029 
L 450 10.8 
" style="fill: none; stroke: #000000; stroke-width: 0.8; stroke-linejoin: miter; stroke-linecap: square"/>
   </g>
   <g id="patch_5">
    <path d="M 44.57 211.825029 
L 450 211.825029 
" style="fill: none; stroke: #000000; stroke-width: 0.8; stroke-linejoin: miter; stroke-linecap: square"/>
   </g>
   <g id="patch_6">
    <path d="M 44.57 10.8 
L 450 10.8 
" style="fill: none; stroke: #000000; stroke-width: 0.8; stroke-linejoin: miter; stroke-linecap: square"/>
   </g>
   <g id="patch_7">
    <path d="M 62.998636 211.825029 
L 68.911568 211.825029 
L 68.911568 56.121607 
L 62.998636 56.121607 
z
" clip-path="url(#p8aa837e3e9)" style="fill: #248af0"/>
   </g>
   <g id="patch_8">
    <path d="M 94.534271 211.825029 
L 100.447202 211.825029 
L 100.447202 43.550273 
L 94.534271 43.550273 
z
" clip-path="url(#p8aa837e3e9)" style="fill: #248af0"/>
   </g>
   <g id="patch_9">
    <path d="M 126.069905 211.825029 
L 131.982837 211.825029 
L 131.982837 68.969319 
L 126.069905 68.969319 
z
" clip-path="url(#p8aa837e3e9)" style="fill: #248af0"/>
   </g>
   <g id="patch_10">
    <path d="M 157.60554 211.825029 
L 163.518471 211.825029 
L 163.518471 61.994063 
L 157.60554 61.994063 
z
" clip-path="url(#p8aa837e3e9)" style="fill: #248af0"/>
   </g>
   <g id="patch_11">
    <path d="M 189.141174 211.825029 
L 195.054105 211.825029 
L 195.054105 74.336355 
L 189.141174 74.336355 
z
" clip-path="url(#p8aa837e3e9)" style="fill: #248af0"/>
   </g>
   <g id="patch_12">
    <path d="M 220.676808 211.825029 
L 226.58974 211.825029 
L 226.58974 66.928507 
L 220.676808 66.928507 
z
" clip-path="url(#p8aa837e3e9)" style="fill: #248af0"/>
   </g>
   <g id="patch_13">
    <path d="M 252.212443 211.825029 
L 258.125374 211.825029 
L 258.125374 39.377265 
L 252.212443 39.377265 
z
" clip-path="url(#p8aa837e3e9)" style="fill: #248af0"/>
   </g>
   <g id="patch_14">
    <path d="M 283.748077 211.825029 
L 289.661009 211.825029 
L 289.661009 38.40968 
L 283.748077 38.40968 
z
" clip-path="url(#p8aa837e3e9)" style="fill: #248af0"/>
   </g>
   <g id="patch_15">
    <path d="M 315.283712 211.825029 
L 321.196643 211.825029 
L 321.196643 52.901676 
L 315.283712 52.901676 
z
" clip-path="url(#p8aa837e3e9)" style="fill: #248af0"/>
   </g>
   <g id="patch_16">
    <path d="M 346.819346 211.825029 
L 352.732278 211.825029 
L 352.732278 20.37262 
L 346.819346 20.37262 
z
" clip-path="url(#p8aa837e3e9)" style="fill: #248af0"/>
   </g>
   <g id="patch_17">
    <path d="M 378.354981 211.825029 
L 384.267912 211.825029 
L 384.267912 45.691061 
L 378.354981 45.691061 
z
" clip-path="url(#p8aa837e3e9)" style="fill: #248af0"/>
   </g>
   <g id="patch_18">
    <path d="M 409.890615 211.825029 
L 415.803546 211.825029 
L 415.803546 59.672852 
L 409.890615 59.672852 
z
" clip-path="url(#p8aa837e3e9)" style="fill: #248af0"/>
   </g>
   <g id="patch_19">
    <path d="M 70.882545 211.825029 
L 76.795476 211.825029 
L 76.795476 80.738981 
L 70.882545 80.738981 
z
" clip-path="url(#p8aa837e3e9)" style="fill: #f5413b"/>
   </g>
   <g id="patch_20">
    <path d="M 102.418179 211.825029 
L 108.331111 211.825029 
L 108.331111 65.208523 
L 102.418179 65.208523 
z
" clip-path="url(#p8aa837e3e9)" style="fill: #f5413b"/>
   </g>
   <g id="patch_21">
    <path d="M 133.953814 211.825029 
L 139.866745 211.825029 
L 139.866745 97.48004 
L 133.953814 97.48004 
z
" clip-path="url(#p8aa837e3e9)" style="fill: #f5413b"/>
   </g>
   <g id="patch_22">
    <path d="M 165.489448 211.825029 
L 171.40238 211.825029 
L 171.40238 102.320257 
L 165.489448 102.320257 
z
" clip-path="url(#p8aa837e3e9)" style="fill: #f5413b"/>
   </g>
   <g id="patch_23">
    <path d="M 197.025083 211.825029 
L 202.938014 211.825029 
L 202.938014 92.750206 
L 197.025083 92.750206 
z
" clip-path="url(#p8aa837e3e9)" style="fill: #f5413b"/>
   </g>
   <g id="patch_24">
    <path d="M 228.560717 211.825029 
L 234.473649 211.825029 
L 234.473649 107.396576 
L 228.560717 107.396576 
z
" clip-path="url(#p8aa837e3e9)" style="fill: #f5413b"/>
   </g>
   <g id="patch_25">
    <path d="M 260.096351 211.825029 
L 266.009283 211.825029 
L 266.009283 88.082802 
L 260.096351 88.082802 
z
" clip-path="url(#p8aa837e3e9)" style="fill: #f5413b"/>
   </g>
   <g id="patch_26">
    <path d="M 291.631986 211.825029 
L 297.544917 211.825029 
L 297.544917 113.217188 
L 291.631986 113.217188 
z
" clip-path="url(#p8aa837e3e9)" style="fill: #f5413b"/>
   </g>
   <g id="patch_27">
    <path d="M 323.16762 211.825029 
L 329.080552 211.825029 
L 329.080552 106.174003 
L 323.16762 106.174003 
z
" clip-path="url(#p8aa837e3e9)" style="fill: #f5413b"/>
   </g>
   <g id="patch_28">
    <path d="M 354.703255 211.825029 
L 360.616186 211.825029 
L 360.616186 51.563158 
L 354.703255 51.563158 
z
" clip-path="url(#p8aa837e3e9)" style="fill: #f5413b"/>
   </g>
   <g id="patch_29">
    <path d="M 386.238889 211.825029 
L 392.151821 211.825029 
L 392.151821 83.334648 
L 386.238889 83.334648 
z
" clip-path="url(#p8aa837e3e9)" style="fill: #f5413b"/>
   </g>
   <g id="patch_30">
    <path d="M 417.774524 211.825029 
L 423.687455 211.825029 
L 423.687455 91.494259 
L 417.774524 91.494259 
z
" clip-path="url(#p8aa837e3e9)" style="fill: #f5413b"/>
   </g>
   <g id="patch_31">
    <path d="M 78.766454 211.825029 
L 84.679385 211.825029 
L 84.679385 84.699453 
L 78.766454 84.699453 
z
" clip-path="url(#p8aa837e3e9)" style="fill: #ffb92f"/>
   </g>
   <g id="patch_32">
    <path d="M 110.302088 211.825029 
L 116.215019 211.825029 
L 116.215019 72.542551 
L 110.302088 72.542551 
z
" clip-path="url(#p8aa837e3e9)" style="fill: #ffb92f"/>
   </g>
   <g id="patch_33">
    <path d="M 141.837722 211.825029 
L 147.750654 211.825029 
L 147.750654 111.164343 
L 141.837722 111.164343 
z
" clip-path="url(#p8aa837e3e9)" style="fill: #ffb92f"/>
   </g>
   <g id="patch_34">
    <path d="M 173.373357 211.825029 
L 179.286288 211.825029 
L 179.286288 120.326016 
L 173.373357 120.326016 
z
" clip-path="url(#p8aa837e3e9)" style="fill: #ffb92f"/>
   </g>
   <g id="patch_35">
    <path d="M 204.908991 211.825029 
L 210.821923 211.825029 
L 210.821923 100.682151 
L 204.908991 100.682151 
z
" clip-path="url(#p8aa837e3e9)" style="fill: #ffb92f"/>
   </g>
   <g id="patch_36">
    <path d="M 236.444626 211.825029 
L 242.357557 211.825029 
L 242.357557 106.60907 
L 236.444626 106.60907 
z
" clip-path="url(#p8aa837e3e9)" style="fill: #ffb92f"/>
   </g>
   <g id="patch_37">
    <path d="M 267.98026 211.825029 
L 273.893192 211.825029 
L 273.893192 106.391974 
L 267.98026 106.391974 
z
" clip-path="url(#p8aa837e3e9)" style="fill: #ffb92f"/>
   </g>
   <g id="patch_38">
    <path d="M 299.515895 211.825029 
L 305.428826 211.825029 
L 305.428826 144.811335 
L 299.515895 144.811335 
z
" clip-path="url(#p8aa837e3e9)" style="fill: #ffb92f"/>
   </g>
   <g id="patch_39">
    <path d="M 331.051529 211.825029 
L 336.96446 211.825029 
L 336.96446 115.943301 
L 331.051529 115.943301 
z
" clip-path="url(#p8aa837e3e9)" style="fill: #ffb92f"/>
   </g>
   <g id="patch_40">
    <path d="M 362.587163 211.825029 
L 368.500095 211.825029 
L 368.500095 41.946406 
L 362.587163 41.946406 
z
" clip-path="url(#p8aa837e3e9)" style="fill: #ffb92f"/>
   </g>
   <g id="patch_41">
    <path d="M 394.122798 211.825029 
L 400.035729 211.825029 
L 400.035729 94.176938 
L 394.122798 94.176938 
z
" clip-path="url(#p8aa837e3e9)" style="fill: #ffb92f"/>
   </g>
   <g id="patch_42">
    <path d="M 425.658432 211.825029 
L 431.571364 211.825029 
L 431.571364 110.589407 
L 425.658432 110.589407 
z
" clip-path="url(#p8aa837e3e9)" style="fill: #ffb92f"/>
   </g>
   <g id="legend_1">
    <g id="patch_43">
     <path d="M 115.282656 33.478125 
L 379.287344 33.478125 
Q 381.287344 33.478125 381.287344 31.478125 
L 381.287344 17.8 
Q 381.287344 15.8 379.287344 15.8 
L 115.282656 15.8 
Q 113.282656 15.8 113.282656 17.8 
L 113.282656 31.478125 
Q 113.282656 33.478125 115.282656 33.478125 
z
" style="fill: #ffffff; opacity: 0.8; stroke: #cccccc; stroke-linejoin: miter"/>
    </g>
    <g id="patch_44">
     <path d="M 117.282656 27.398438 
L 137.282656 27.398438 
L 137.282656 20.398438 
L 117.282656 20.398438 
z
" style="fill: #248af0"/>
    </g>
    <g id="text_19">
     <!-- InCoder -->
     <g transform="translate(145.282656 27.398438) scale(0.1 -0.1)">
      <defs>
       <path id="DejaVuSans-49" d="M 628 4666 
L 1259 4666 
L 1259 0 
L 628 0 
L 628 4666 
z
" transform="scale(0.015625)"/>
       <path id="DejaVuSans-64" d="M 2906 2969 
L 2906 4863 
L 3481 4863 
L 3481 0 
L 2906 0 
L 2906 525 
Q 2725 213 2448 61 
Q 2172 -91 1784 -91 
Q 1150 -91 751 415 
Q 353 922 353 1747 
Q 353 2572 751 3078 
Q 1150 3584 1784 3584 
Q 2172 3584 2448 3432 
Q 2725 3281 2906 2969 
z
M 947 1747 
Q 947 1113 1208 752 
Q 1469 391 1925 391 
Q 2381 391 2643 752 
Q 2906 1113 2906 1747 
Q 2906 2381 2643 2742 
Q 2381 3103 1925 3103 
Q 1469 3103 1208 2742 
Q 947 2381 947 1747 
z
" transform="scale(0.015625)"/>
      </defs>
      <use xlink:href="#DejaVuSans-49"/>
      <use xlink:href="#DejaVuSans-6e" x="29.492188"/>
      <use xlink:href="#DejaVuSans-43" x="92.871094"/>
      <use xlink:href="#DejaVuSans-6f" x="162.695312"/>
      <use xlink:href="#DejaVuSans-64" x="223.876953"/>
      <use xlink:href="#DejaVuSans-65" x="287.353516"/>
      <use xlink:href="#DejaVuSans-72" x="348.876953"/>
     </g>
    </g>
    <g id="patch_45">
     <path d="M 204.284219 27.398438 
L 224.284219 27.398438 
L 224.284219 20.398438 
L 204.284219 20.398438 
z
" style="fill: #f5413b"/>
    </g>
    <g id="text_20">
     <!-- UniXcoder -->
     <g transform="translate(232.284219 27.398438) scale(0.1 -0.1)">
      <defs>
       <path id="DejaVuSans-58" d="M 403 4666 
L 1081 4666 
L 2241 2931 
L 3406 4666 
L 4084 4666 
L 2584 2425 
L 4184 0 
L 3506 0 
L 2194 1984 
L 872 0 
L 191 0 
L 1856 2491 
L 403 4666 
z
" transform="scale(0.015625)"/>
      </defs>
      <use xlink:href="#DejaVuSans-55"/>
      <use xlink:href="#DejaVuSans-6e" x="73.193359"/>
      <use xlink:href="#DejaVuSans-69" x="136.572266"/>
      <use xlink:href="#DejaVuSans-58" x="164.355469"/>
      <use xlink:href="#DejaVuSans-63" x="232.861328"/>
      <use xlink:href="#DejaVuSans-6f" x="287.841797"/>
      <use xlink:href="#DejaVuSans-64" x="349.023438"/>
      <use xlink:href="#DejaVuSans-65" x="412.5"/>
      <use xlink:href="#DejaVuSans-72" x="474.023438"/>
     </g>
    </g>
    <g id="patch_46">
     <path d="M 303.798281 27.398438 
L 323.798281 27.398438 
L 323.798281 20.398438 
L 303.798281 20.398438 
z
" style="fill: #ffb92f"/>
    </g>
    <g id="text_21">
     <!-- CodeGPT -->
     <g transform="translate(331.798281 27.398438) scale(0.1 -0.1)">
      <use xlink:href="#DejaVuSans-43"/>
      <use xlink:href="#DejaVuSans-6f" x="69.824219"/>
      <use xlink:href="#DejaVuSans-64" x="131.005859"/>
      <use xlink:href="#DejaVuSans-65" x="194.482422"/>
      <use xlink:href="#DejaVuSans-47" x="256.005859"/>
      <use xlink:href="#DejaVuSans-50" x="333.496094"/>
      <use xlink:href="#DejaVuSans-54" x="393.798828"/>
     </g>
    </g>
   </g>
  </g>
 </g>
 <defs>
  <clipPath id="p8aa837e3e9">
   <rect x="44.57" y="10.8" width="405.43" height="201.025029"/>
  </clipPath>
 </defs>
</svg>
